<svg viewBox="0 0 372 360" width="372" height="360" version="1.1" xmlns="http://www.w3.org/2000/svg"><g><path class="floor" box-shadow="10px 10px 5px #444" d="M 189.45 69.53 L 255.71 157.71 A 18.52 18.52 0 0 0 260.12 188.13 L 282.28 199.97 L 295.69 218.74 L 292.60 224.56 A 25.05 25.05 0 0 1 277.35 252.28 L 272.26 261.89 L 270.49 260.96 L 268.72 264.31 L 255.32 257.27 L 254.39 259.01 L 229.06 245.70 L 231.45 241.18 L 226.44 238.55 L 225.20 240.88 L 222.65 239.54 L 223.28 238.35 L 212.60 232.74 L 213.89 230.31 L 202.84 224.50 L 201.88 226.32 L 196.60 223.55 L 197.44 221.97 L 189.95 218.04 L 189.11 219.61 L 181.84 215.79 L 182.64 214.27 L 181.46 213.65 A 7.45 7.45 0 0 1 173.66 215.11 L 169.01 223.89 L 167.67 223.18 L 136.70 281.65 L 128.90 284.80 L 71.40 254.57 L 73.21 251.16 L 70.62 249.79 L 78.02 235.82 L 80.54 237.14 L 83.05 232.40 L 111.33 247.27 L 118.27 244.96 L 174.09 139.60 L 174.02 135.58 L 159.64 127.84 L 160.56 126.09 L 137.82 114.14 L 159.54 73.14 A 26.75 26.75 0 0 0 189.45 69.53 z"></path><path class="shop" box-shadow="10px 10px 5px #444" d="M 173.35 111.23 L 163.22 114.22 L 162.09 116.36 L 154.73 112.49 L 159.77 102.97 L 151.91 98.85 L 162.14 79.53 A 25.84 25.84 0 0 0 171.47 81.83 L 171.54 81.79 L 177.66 100.96 L 173.79 101.97 L 171.58 106.15 L 173.35 111.23 z"></path><path class="shop" box-shadow="10px 10px 5px #444" d="M 194.69 103.50 L 193.45 99.22 L 189.68 97.24 L 185.86 98.24 L 180.36 80.98 L 181.08 80.99 A 27.24 27.24 0 0 0 190.85 75.82 L 204.18 93.56 L 199.11 97.78 L 201.66 101.21 L 194.69 103.50 z"></path><path class="shop" box-shadow="10px 10px 5px #444" d="M 198.32 116.02 L 209.78 112.13 L 212.82 116.22 L 214.38 115.05 L 212.83 112.96 L 216.65 110.54 L 222.86 118.80 L 206.67 149.35 L 204.54 148.23 L 206.55 144.43 L 198.32 116.02 z"></path><path class="shop" box-shadow="10px 10px 5px #444" d="M 194.69 103.50 L 201.66 101.21 L 209.78 112.13 L 198.32 116.02 L 194.69 103.50 z"></path><path class="shop" box-shadow="10px 10px 5px #444" d="M 244.17 184.20 L 239.04 187.07 L 227.69 208.49 L 199.80 193.84 L 211.11 172.48 L 208.54 163.69 L 227.24 128.39 L 229.77 127.98 L 237.31 138.01 L 231.59 148.80 L 241.72 154.13 L 240.04 157.31 L 245.22 160.04 A 18.92 18.92 0 0 0 244.17 184.20 z"></path><path class="shop" box-shadow="10px 10px 5px #444" d="M 245.06 205.52 L 253.02 190.49 L 257.43 192.85 L 251.30 204.43 L 253.05 205.35 L 251.24 208.77 L 245.06 205.52 z"></path><path class="shop" box-shadow="10px 10px 5px #444" d="M 285.53 218.75 L 289.86 210.57 L 295.69 218.74 L 294.09 221.76 L 290.86 220.06 L 290.24 221.22 L 285.53 218.75 z"></path><path class="shop" box-shadow="10px 10px 5px #444" d="M 276.16 216.90 L 281.96 205.95 L 282.80 206.39 L 284.53 203.12 L 289.86 210.57 L 285.53 218.75 L 284.25 221.15 L 276.16 216.90 z"></path><path class="shop" box-shadow="10px 10px 5px #444" d="M 270.27 215.89 L 276.95 203.27 L 281.96 205.95 L 276.16 216.90 L 275.30 218.53 L 270.27 215.89 z"></path><path class="shop" box-shadow="10px 10px 5px #444" d="M 265.64 213.45 L 272.34 200.81 L 276.95 203.27 L 270.27 215.89 L 265.64 213.45 z"></path><path class="shop" box-shadow="10px 10px 5px #444" d="M 262.01 210.06 L 268.11 198.55 L 272.34 200.81 L 265.64 213.45 L 261.39 211.22 L 262.01 210.06 z"></path><path class="shop" box-shadow="10px 10px 5px #444" d="M 257.06 207.46 L 263.18 195.91 L 268.11 198.55 L 262.01 210.06 L 257.06 207.46 z"></path><path class="shop" box-shadow="10px 10px 5px #444" d="M 253.05 205.35 L 251.30 204.43 L 257.43 192.85 L 263.18 195.91 L 257.06 207.46 L 253.05 205.35 z"></path><path class="shop" box-shadow="10px 10px 5px #444" d="M 240.01 191.52 L 245.00 194.14 L 239.86 203.84 L 234.87 201.22 L 240.01 191.52 z"></path><path class="shop" box-shadow="10px 10px 5px #444" d="M 246.14 206.09 L 241.08 215.64 L 235.24 212.56 L 240.30 203.02 L 246.14 206.09 z"></path><path class="shop" box-shadow="10px 10px 5px #444" d="M 241.08 215.64 L 246.14 206.09 L 251.24 208.77 L 247.50 215.83 L 243.51 216.91 L 241.08 215.64 z"></path><path class="shop" box-shadow="10px 10px 5px #444" d="M 253.02 190.49 L 245.06 205.52 L 240.30 203.02 L 248.28 187.96 L 253.02 190.49 z"></path><path class="shop" box-shadow="10px 10px 5px #444" d="M 234.87 201.22 L 239.86 203.84 L 235.24 212.56 L 230.25 209.94 L 234.87 201.22 z"></path><path class="shop" box-shadow="10px 10px 5px #444" d="M 240.01 191.52 L 240.91 189.81 L 246.22 186.86 L 248.28 187.96 L 245.00 194.14 L 240.01 191.52 z"></path><path class="shop" box-shadow="10px 10px 5px #444" d="M 237.92 229.31 L 229.77 225.03 L 231.44 221.87 L 230.36 221.31 L 231.26 219.61 L 233.51 220.80 L 234.70 218.56 L 244.76 223.85 L 240.37 232.15 L 237.27 230.53 L 237.92 229.31 z"></path><path class="shop" box-shadow="10px 10px 5px #444" d="M 195.47 197.03 L 188.58 207.47 L 184.92 205.55 L 180.10 214.65 A 7.45 7.45 0 0 1 178.48 215.34 A 7.45 7.45 0 0 1 173.66 215.11 L 169.01 223.89 L 167.67 223.18 L 161.31 219.84 L 155.99 229.88 L 159.00 231.46 L 157.15 234.95 L 159.21 236.04 L 158.28 237.78 L 151.74 234.34 L 155.85 226.60 L 153.19 225.21 L 168.31 196.67 L 174.57 194.68 L 177.21 201.05 L 195.47 197.03 z"></path><path class="shop" box-shadow="10px 10px 5px #444" d="M 146.71 259.47 L 140.23 256.06 L 148.16 241.10 L 151.58 242.90 L 148.87 248.02 L 147.22 247.15 L 145.77 249.89 L 148.77 251.47 L 145.93 256.83 L 147.64 257.72 L 146.71 259.47 z"></path><path class="shop" box-shadow="10px 10px 5px #444" d="M 128.90 284.80 L 78.90 258.52 L 90.63 236.39 L 94.40 238.37 L 92.54 241.87 L 106.80 249.36 L 108.65 245.86 L 111.33 247.27 L 113.98 246.39 L 117.86 261.05 L 133.41 269.23 L 139.09 258.51 L 145.51 261.89 L 136.93 278.08 L 133.44 276.24 L 128.90 284.80 z"></path><path class="shop" box-shadow="10px 10px 5px #444" d="M 176.19 136.73 L 181.37 134.99 L 187.07 151.43 L 189.75 152.83 L 171.66 186.98 L 162.55 189.89 L 159.05 196.48 L 150.24 191.85 L 165.16 163.71 L 173.40 168.04 L 176.39 162.42 L 172.54 160.39 L 178.82 148.53 L 176.05 147.08 L 176.95 145.39 A 9.17 9.17 0 0 1 176.19 136.73 z"></path><path class="shop" box-shadow="10px 10px 5px #444" d="M 176.19 136.73 L 174.02 135.58 L 159.64 127.84 L 160.56 126.09 L 165.31 117.13 L 174.26 114.49 L 181.37 134.99 L 176.19 136.73 z"></path><path class="shop" box-shadow="10px 10px 5px #444" d="M 144.03 220.61 L 141.79 219.43 L 137.78 227.00 L 136.37 226.26 L 138.93 221.42 L 135.98 219.88 L 136.69 218.54 L 135.75 218.04 L 145.10 200.40 L 146.69 201.23 L 147.46 199.78 L 149.99 201.11 L 152.46 196.45 L 153.99 197.26 L 152.73 199.64 L 154.61 200.63 L 144.03 220.61 z"></path><path class="shop" box-shadow="10px 10px 5px #444" d="M 123.99 253.03 L 121.57 251.76 L 120.75 246.49 L 128.16 232.51 L 131.51 234.28 L 132.44 232.53 L 132.91 232.78 L 134.82 229.17 L 136.24 229.91 L 123.99 253.03 z"></path><path class="shop" box-shadow="10px 10px 5px #444" d="M 226.47 217.07 L 227.63 214.88 L 231.18 216.74 L 230.02 218.93 L 226.47 217.07 z"></path><path class="shop" box-shadow="10px 10px 5px #444" d="M 188.58 207.47 L 195.47 197.03 L 215.44 207.52 L 211.46 215.04 L 204.21 211.23 L 202.27 214.89 L 194.38 210.74 L 193.39 212.61 L 191.27 211.49 L 188.64 216.44 L 184.87 214.46 L 188.58 207.47 z"></path><path class="shop" box-shadow="10px 10px 5px #444" d="M 214.12 214.69 L 217.38 208.54 L 225.31 212.71 L 222.05 218.86 L 214.12 214.69 z"></path></g></svg>