
<svg width="372" height="360" xmlns="http://www.w3.org/2000/svg" xmlns:svg="http://www.w3.org/2000/svg">
 <!-- Created with SVG-edit - http://svg-edit.googlecode.com/ -->
 <g>

  <path class="floor" d="m189.449997,69.529999l66.26001,88.180008a18.52,18.52 0 0 0 4.409988,30.419998l22.160004,11.840012l13.410004,18.769989l-3.089996,5.819992a25.049999,25.049999 0 0 1 -15.25,27.719986l-5.089996,9.610031l-1.77002,-0.930023l-1.769989,3.350006l-13.399994,-7.040009l-0.930023,1.740021l-25.329987,-13.309982l2.389999,-4.520004l-5.009995,-2.630005l-1.240005,2.330002l-2.550003,-1.340012l0.62999,-1.189987l-10.679977,-5.610001l1.289978,-2.430008l-11.049988,-5.809998l-0.959991,1.820007l-5.279999,-2.770004l0.839996,-1.580002l-7.490005,-3.930008l-0.840042,1.570007l-7.269958,-3.820007l0.799957,-1.519989l-1.179977,-0.62001a7.45,7.45 0 0 1 -7.800003,1.460007l-4.650009,8.779999l-1.340012,-0.710007l-30.969986,58.470016l-7.800003,3.149963l-57.499985,-30.229965l1.809998,-3.410004l-2.589996,-1.37001l7.399994,-13.969986l2.519997,1.319992l2.509987,-4.740021l28.280006,14.87001l6.939987,-2.309998l55.819984,-105.360001l-0.069992,-4.019989l-14.37999,-7.740036l0.920013,-1.75l-22.73999,-11.950005l21.719986,-41a26.75,26.75 0 0 0 29.910004,-3.609993l0,0.000008l0.000031,0.000008z" id="svg_1" fill-opacity="0" fill="#FFFFFF" stroke="#A56D57"/>
  <path class="shop" d="m173.350006,111.230003l-10.12999,2.989998l-1.12999,2.139999l-7.360001,-3.870003l5.040009,-9.519997l-7.860001,-4.120003l10.230011,-19.32a25.84,25.84 0 0 0 9.330002,2.300003l0.069977,-0.040001l6.12001,19.169998l-3.87001,1.010002l-2.209976,4.18l1.769989,5.080002l-0.000031,0z" id="svg_2" fill="#FFFBD6" stroke="#efe7b6"/>
  <path class="shop" d="m194.690002,103.5l-1.240005,-4.279999l-3.770004,-1.980003l-3.819992,1l-5.5,-17.259987l0.720001,0.009987a27.24,27.24 0 0 0 9.770004,-5.169998l13.329987,17.739998l-5.069992,4.220001l2.550003,3.43l-6.970001,2.290001z" id="svg_3" fill="#FFFBD6" stroke="#efe7b6"/>
  <path class="shop" d="m198.320007,116.019997l11.459991,-3.889999l3.040009,4.090004l1.559998,-1.169998l-1.549988,-2.090004l3.819977,-2.419998l6.210022,8.260002l-16.190002,30.550003l-2.12999,-1.12001l2.01001,-3.800003l-8.230011,-28.410004l-0.000015,0.000008z" id="svg_4" fill="#FFFBD6" stroke="#efe7b6"/>
  <path class="shop" d="m194.690002,103.5l6.970001,-2.290001l8.119995,10.919998l-11.459991,3.889999l-3.630005,-12.519997z" id="svg_5" fill="#FFFBD6" stroke="#efe7b6"/>
  <path class="shop" d="m244.169998,184.199997l-5.130005,2.87001l-11.349991,21.419998l-27.889999,-14.650009l11.310013,-21.360001l-2.570023,-8.789993l18.700012,-35.299988l2.529999,-0.409996l7.539993,10.029976l-5.720001,10.790009l10.130005,5.330002l-1.680008,3.179993l5.180008,2.729996a18.92,18.92 0 0 0 -1.050003,24.160004z" id="svg_6" fill="#FFFBD6" stroke="#efe7b6"/>
  <path class="shop" d="m245.059998,205.520004l7.960007,-15.029999l4.409988,2.360001l-6.12999,11.579987l1.75,0.920013l-1.809998,3.419998l-6.180008,-3.25z" id="svg_7" fill="#FFFBD6" stroke="#efe7b6"/>
  <path class="shop" d="m285.529999,218.75l4.329987,-8.179993l5.830017,8.169998l-1.600006,3.019989l-3.230011,-1.699997l-0.619995,1.160004l-4.709991,-2.470001z" id="svg_8" fill="#FFFBD6" stroke="#efe7b6"/>
  <path class="shop" d="m276.160004,216.899994l5.799988,-10.949997l0.839996,0.439987l1.730011,-3.269989l5.329987,7.450012l-4.329987,8.179977l-1.279999,2.399979l-8.089996,-4.25l0,0.000031z" id="svg_9" fill="#FFFBD6" stroke="#efe7b6"/>
  <path class="shop" d="m270.269989,215.889999l6.680023,-12.619995l5.009979,2.679993l-5.799988,10.949997l-0.860016,1.62999l-5.029999,-2.639999l0,0.000015z" id="svg_10" fill="#FFFBD6" stroke="#efe7b6"/>
  <path class="shop" d="m265.640015,213.449997l6.699982,-12.639999l4.610016,2.460007l-6.680023,12.62001l-4.629974,-2.439987l0,-0.000031z" id="svg_11" fill="#FFFBD6" stroke="#efe7b6"/>
  <path class="shop" d="m262.01001,210.059998l6.099976,-11.509995l4.230011,2.259995l-6.699982,12.639999l-4.25,-2.229996l0.619995,-1.160004z" id="svg_12" fill="#FFFBD6" stroke="#efe7b6"/>
  <path class="shop" d="m257.059998,207.460007l6.119995,-11.550003l4.929993,2.639999l-6.099976,11.509995l-4.950012,-2.599991z" id="svg_13" fill="#FFFBD6" stroke="#efe7b6"/>
  <path class="shop" d="m253.050003,205.350006l-1.75,-0.920013l6.12999,-11.579987l5.75,3.059998l-6.119995,11.550003l-4.009995,-2.110001z" id="svg_14" fill="#FFFBD6" stroke="#efe7b6"/>
  <path class="shop" d="m240.009995,191.520004l4.990005,2.619995l-5.139999,9.699997l-4.990005,-2.619995l5.139999,-9.699997z" id="svg_15" fill="#FFFBD6" stroke="#efe7b6"/>
  <path class="shop" d="m246.139999,206.089996l-5.059998,9.550003l-5.839996,-3.080002l5.059998,-9.539993l5.839996,3.069992z" id="svg_16" fill="#FFFBD6" stroke="#efe7b6"/>
  <path class="shop" d="m241.080002,215.639999l5.059998,-9.550003l5.100006,2.680008l-3.740005,7.060013l-3.990005,1.079987l-2.429993,-1.269989l0,-0.000015z" id="svg_17" fill="#FFFBD6" stroke="#efe7b6"/>
  <path class="shop" d="m253.020004,190.490005l-7.960007,15.029999l-4.759995,-2.5l7.979996,-15.059998l4.740005,2.529999z" id="svg_18" fill="#FFFBD6" stroke="#efe7b6"/>
  <path class="shop" d="m234.869995,201.220001l4.990021,2.619995l-4.62001,8.720001l-4.990021,-2.619995l4.62001,-8.720001z" id="svg_19" fill="#FFFBD6" stroke="#efe7b6"/>
  <path class="shop" d="m240.009995,191.520004l0.900009,-1.710007l5.309998,-2.950012l2.059998,1.100021l-3.279999,6.179977l-4.990005,-2.62001l0,0.000031z" id="svg_20" fill="#FFFBD6" stroke="#efe7b6"/>
  <path class="shop" d="m237.919998,229.309998l-8.149994,-4.279999l1.669998,-3.160004l-1.079987,-0.559998l0.899979,-1.699997l2.25,1.190002l1.190002,-2.240005l10.059998,5.290009l-4.389999,8.299988l-3.099991,-1.62001l0.649994,-1.219986z" id="svg_21" fill="#FFFBD6" stroke="#efe7b6"/>
  <path class="shop" d="m195.470001,197.029999l-6.889999,10.440002l-3.660004,-1.919998l-4.819992,9.099991a7.45,7.45 0 0 1 -1.62001,0.690002a7.45,7.45 0 0 1 -4.819992,-0.230011l-4.650009,8.779999l-1.339996,-0.710007l-6.360001,-3.340012l-5.319992,10.040009l3.009995,1.580002l-1.850006,3.48999l2.060013,1.089996l-0.930023,1.740021l-6.539978,-3.439987l4.110001,-7.73999l-2.660004,-1.389999l15.119995,-28.540024l6.26001,-1.990005l2.639999,6.369995l18.259995,-4.019989l0,0.000015z" id="svg_22" fill="#FFFBD6" stroke="#efe7b6"/>
  <path class="shop" d="m146.710007,259.470001l-6.480011,-3.410004l7.930008,-14.959991l3.420013,1.799988l-2.710022,5.12001l-1.649979,-0.87001l-1.450012,2.740021l3,1.580002l-2.840012,5.35997l1.710022,0.890015l-0.929977,1.75l-0.000031,0z" id="svg_23" fill="#FFFBD6" stroke="#efe7b6"/>
  <path class="shop" d="m128.899994,284.799988l-49.999985,-26.279999l11.729988,-22.12999l3.770004,1.979996l-1.860001,3.5l14.26001,7.490021l1.849998,-3.5l2.68,1.409988l2.650002,-0.87999l3.879997,14.659973l15.549995,8.180023l5.679993,-10.720001l6.419998,3.380005l-8.580002,16.189972l-3.48999,-1.839996l-4.540009,8.559998z" id="svg_24" fill="#FFFBD6" stroke="#efe7b6"/>
  <path class="shop" d="m176.190002,136.729996l5.179993,-1.73999l5.700012,16.439987l2.679977,1.400009l-18.090012,34.149994l-9.110001,2.909988l-3.5,6.590012l-8.809998,-4.62999l14.919998,-28.139999l8.23999,4.329987l2.990021,-5.619995l-3.850021,-2.029999l6.280014,-11.860001l-2.770004,-1.449997l0.899994,-1.690002a9.17,9.17 0 0 1 -0.759979,-8.660004l0.000015,0z" id="svg_25" fill="#FFFBD6" stroke="#efe7b6"/>
  <path class="shop" d="m176.190002,136.729996l-2.169998,-1.149979l-14.380005,-7.740021l0.919998,-1.75l4.75,-8.959999l8.949997,-2.639999l7.110001,20.500008l-5.179993,1.73999z" id="svg_26" fill="#FFFBD6" stroke="#efe7b6"/>
  <path class="shop" d="m144.029999,220.610001l-2.240005,-1.180008l-4.009995,7.570007l-1.410004,-0.740005l2.559998,-4.840012l-2.949997,-1.539978l0.710007,-1.340012l-0.939987,-0.5l9.350021,-17.639999l1.589996,0.830002l0.770004,-1.450012l2.529999,1.330002l2.470001,-4.659988l1.529999,0.809998l-1.26001,2.37999l1.87999,0.990021l-10.580002,19.979996l-0.000015,0z" id="svg_27" fill="#FFFBD6" stroke="#efe7b6"/>
  <path class="shop" d="m123.989998,253.029999l-2.419998,-1.270004l-0.82,-5.269989l7.410004,-13.980011l3.349991,1.770004l0.930008,-1.75l0.470001,0.25l1.910004,-3.610001l1.419998,0.740005l-12.250023,23.12001l0.000008,-0.000015l0.000008,0z" id="svg_28" fill="#FFFBD6" stroke="#efe7b6"/>
  <path class="shop" d="m226.470001,217.070007l1.160004,-2.190002l3.549988,1.860001l-1.159988,2.189987l-3.550003,-1.859985z" id="svg_29" fill="#FFFBD6" stroke="#efe7b6"/>
  <path class="shop" d="m188.580002,207.470001l6.889999,-10.440002l19.970001,10.490005l-3.979996,7.519989l-7.25,-3.809998l-1.940002,3.660004l-7.889999,-4.149994l-0.990021,1.87001l-2.12001,-1.12001l-2.62999,4.949997l-3.769989,-1.979996l3.710007,-6.990005z" id="svg_30" fill="#FFFBD6" stroke="#efe7b6"/>
  <path class="shop" d="m214.119995,214.690002l3.26001,-6.150009l7.929993,4.170013l-3.259995,6.149979l-7.930008,-4.169998l0,0.000015z" id="svg_31" fill="#FFFBD6" stroke="#efe7b6"/>
 </g>
</svg>